<?xml version="1.0" standalone="no"?>
<!DOCTYPE svg PUBLIC "-//W3C//DTD SVG 20010904//EN"
 "http://www.w3.org/TR/2001/REC-SVG-20010904/DTD/svg10.dtd">
<svg version="1.0" xmlns="http://www.w3.org/2000/svg"
 width="300.000000pt" height="300.000000pt" viewBox="0 0 300.000000 300.000000"
 preserveAspectRatio="xMidYMid meet">
<metadata>
Created by potrace 1.10, written by Peter Selinger 2001-2011
</metadata>
<g transform="translate(0.000000,300.000000) scale(0.100000,-0.100000)"
fill="#000000" stroke="none">
<path d="M1936 2835 c-8 -23 -8 -63 2 -69 4 -2 75 -14 157 -26 83 -12 151 -22
151 -23 1 -1 -9 -60 -23 -130 -14 -71 -22 -131 -19 -134 3 -4 25 -7 48 -7 l41
-1 32 167 c17 92 29 172 26 176 -3 5 -80 19 -171 31 -91 12 -181 25 -201 28
-28 4 -38 1 -43 -12z m367 -82 c2 -5 1 -21 -2 -38 l-6 -29 -16 24 c-31 50 -31
50 -5 50 14 0 27 -3 29 -7z"/>
<path d="M1525 2772 c-52 -25 -81 -58 -94 -107 -17 -65 11 -150 59 -175 14 -8
20 -21 20 -45 0 -33 -2 -35 -35 -35 -34 0 -35 -1 -35 -41 l0 -42 83 6 c45 4
129 10 185 13 110 7 120 12 108 59 -5 21 -12 25 -41 25 -33 0 -35 2 -35 32 0
21 9 41 27 60 22 23 28 40 31 91 3 52 0 67 -20 96 -39 58 -71 75 -146 79 -50
2 -77 -2 -107 -16z m166 -91 c31 -31 36 -55 18 -94 -14 -32 -49 -47 -105 -47
-78 0 -120 69 -78 128 35 51 120 57 165 13z m19 -170 c-5 -11 -10 -30 -10 -42
0 -21 -1 -22 -20 -4 -26 24 -25 31 8 49 35 19 35 19 22 -3z m-132 -30 c-5 -26
-27 -23 -42 7 l-16 30 31 -11 c17 -7 28 -18 27 -26z m82 -41 c0 -16 -7 -20
-35 -20 -28 0 -35 4 -35 20 0 16 7 20 35 20 28 0 35 -4 35 -20z m58 -22 c19
-19 14 -28 -18 -28 -16 0 -30 4 -30 8 0 9 21 32 30 32 3 0 11 -5 18 -12z
m-150 -10 c20 -20 14 -28 -18 -28 -28 0 -30 2 -20 20 12 23 21 25 38 8z"/>
<path d="M1003 2750 c-13 -5 -23 -14 -23 -19 0 -15 99 -363 104 -369 3 -2 21
-1 41 2 42 8 43 16 15 106 -11 36 -20 66 -20 68 0 1 9 2 19 2 27 0 34 15 26
51 -6 28 -10 30 -35 25 -28 -5 -29 -3 -45 52 -9 31 -18 65 -21 75 -6 18 -26
21 -61 7z m96 -202 c-14 -25 -27 -13 -35 32 l-7 35 26 -24 c21 -19 24 -27 16
-43z"/>
<path d="M2505 2698 c-2 -7 -23 -64 -45 -125 -23 -62 -39 -117 -36 -122 3 -5
19 -14 35 -19 38 -13 40 -11 84 113 19 55 38 108 42 117 5 13 -2 21 -30 32
-45 19 -45 19 -50 4z"/>
<path d="M672 2670 c-19 -8 -22 -15 -16 -32 4 -13 31 -103 60 -201 29 -98 55
-181 57 -184 3 -2 63 14 134 35 119 37 128 42 125 64 -6 57 -10 58 -119 23
-42 -13 -79 -23 -81 -21 -2 2 -24 75 -50 162 -50 170 -55 176 -110 154z"/>
<path d="M2045 2608 c-3 -24 -11 -71 -17 -105 l-10 -63 -68 6 -67 7 -6 -39
c-4 -21 -4 -40 -2 -43 9 -8 400 -60 406 -53 4 4 10 22 14 39 6 29 3 34 -18 42
-13 5 -56 13 -95 17 -70 6 -71 7 -66 33 30 163 32 182 13 191 -10 6 -31 10
-47 10 -28 0 -31 -3 -37 -42z m35 -172 c0 -8 7 -19 15 -26 24 -20 18 -30 -17
-30 -55 0 -65 13 -37 48 24 29 39 32 39 8z"/>
<path d="M2372 2378 c-7 -7 -12 -21 -12 -33 0 -12 5 -26 12 -33 7 -7 21 -12
33 -12 12 0 26 5 33 12 7 7 12 21 12 33 0 12 -5 26 -12 33 -7 7 -21 12 -33 12
-12 0 -26 -5 -33 -12z"/>
<path d="M1755 2256 c-55 -24 -105 -101 -105 -159 l0 -24 -157 -6 c-101 -4
-193 -13 -253 -26 -52 -12 -98 -21 -101 -21 -4 0 -10 16 -14 36 -8 46 -76 121
-121 133 -59 16 -129 -14 -164 -72 -26 -41 -25 -109 0 -166 11 -24 19 -45 18
-45 -89 -46 -213 -181 -273 -296 -69 -134 -98 -255 -98 -410 0 -107 4 -138 27
-215 15 -49 43 -118 62 -152 65 -117 188 -227 301 -269 27 -10 49 -18 51 -19
1 -1 -5 -19 -14 -41 -19 -44 -14 -115 10 -163 14 -27 14 -36 -1 -93 -21 -81
-12 -131 30 -173 44 -44 104 -53 162 -25 34 17 49 32 71 78 16 31 33 59 38 61
5 2 26 19 47 38 48 43 66 92 49 134 -7 16 -16 29 -21 29 -19 0 -8 28 24 58 27
27 41 32 79 32 29 0 50 6 58 15 20 24 -2 38 -53 34 l-45 -4 -6 39 c-9 54 -63
107 -108 106 -18 -1 -50 3 -70 8 -64 17 -127 -5 -190 -65 l-36 -35 -84 40
c-146 71 -250 193 -304 359 -26 80 -29 101 -29 223 0 156 16 230 75 355 48
103 113 190 190 254 80 67 95 74 110 56 7 -8 18 -15 26 -15 29 0 24 23 -15 65
-72 78 -76 174 -7 216 86 54 183 -38 174 -166 -4 -58 17 -73 35 -26 6 17 18
33 27 36 101 31 357 58 455 48 48 -5 58 -10 66 -30 10 -28 36 -40 51 -25 8 8
6 18 -6 36 -20 32 -21 117 -1 156 38 73 125 81 177 16 22 -27 23 -97 2 -142
-9 -19 -32 -48 -51 -63 -35 -29 -37 -51 -5 -51 9 0 28 12 43 26 l28 26 73 -36
c86 -43 145 -91 153 -126 5 -22 0 -28 -37 -45 -107 -52 -120 -193 -27 -299 27
-32 30 -39 24 -80 -6 -36 -12 -46 -28 -48 -27 -4 -35 -38 -13 -53 14 -11 10
-31 -39 -204 -57 -196 -150 -468 -166 -486 -5 -5 -29 -14 -52 -20 -55 -13 -58
-41 -4 -39 29 1 37 -2 35 -14 -2 -9 5 -18 14 -20 24 -5 53 62 143 333 66 198
165 560 165 604 0 9 -16 32 -35 51 -44 43 -70 107 -61 154 12 62 94 109 125
72 15 -17 5 -40 -32 -75 -26 -24 -26 -51 0 -51 8 0 27 13 43 28 31 31 50 29
97 -8 34 -26 66 -25 97 3 19 16 23 26 16 37 -8 13 -12 13 -37 -1 -35 -20 -53
-15 -53 16 0 30 44 65 80 65 15 0 39 -9 54 -21 57 -45 22 -170 -61 -210 -46
-22 -50 -29 -32 -57 13 -21 -17 -251 -57 -430 -73 -328 -206 -591 -356 -708
-52 -40 -58 -53 -29 -61 20 -5 31 -55 31 -140 0 -30 5 -45 16 -50 31 -12 36
11 25 114 l-10 99 62 65 c75 79 145 193 199 324 23 56 58 119 82 150 51 62 90
140 113 227 22 83 22 269 0 358 l-16 65 30 23 c45 36 73 98 73 164 1 69 -23
107 -80 126 -21 7 -56 20 -76 29 -38 16 -38 17 -38 73 0 101 -32 150 -99 150
-37 0 -81 -49 -81 -91 0 -16 -2 -29 -5 -29 -2 0 -32 18 -66 40 -35 22 -80 45
-101 52 -30 9 -37 15 -32 27 45 106 20 191 -70 232 -48 22 -71 23 -111 5z
m516 -332 c4 -16 7 -46 8 -66 1 -32 -3 -40 -29 -53 -16 -8 -33 -23 -39 -32 -7
-14 -13 -15 -21 -6 -8 7 -11 41 -9 98 3 72 7 89 23 101 17 12 23 12 40 0 12
-7 24 -26 27 -42z m52 -160 c3 -3 -7 -17 -24 -31 -16 -14 -29 -31 -29 -39 0
-19 -26 -18 -34 2 -6 16 9 54 28 66 13 9 50 10 59 2z m67 -689 c-14 -70 -67
-205 -82 -205 -6 0 -7 8 -3 18 15 35 44 160 59 247 34 210 31 201 34 95 2 -52
-2 -122 -8 -155z m-1192 -451 c16 -11 22 -24 20 -42 -2 -22 -9 -28 -38 -33
-66 -11 -144 -66 -134 -94 8 -21 18 -19 66 15 62 43 97 48 126 17 26 -27 23
-67 -4 -67 -41 0 -126 -63 -117 -86 7 -20 18 -18 62 12 43 28 78 29 95 1 17
-28 -22 -87 -78 -116 -42 -22 -51 -23 -86 -12 -86 26 -160 128 -160 222 0 121
164 242 248 183z m115 -78 c2 -17 0 -40 -6 -51 -10 -19 -10 -19 -18 2 -4 11
-12 24 -18 28 -6 3 -11 30 -11 58 l1 52 23 -29 c13 -16 26 -43 29 -60z m-260
-355 c24 -12 58 -21 75 -21 41 0 40 -10 -3 -56 -33 -34 -38 -36 -82 -31 -64 7
-83 32 -83 106 0 69 6 78 31 47 11 -14 38 -34 62 -45z"/>
<path d="M2416 2155 c-73 -99 -88 -136 -54 -135 7 1 48 48 91 106 64 85 76
108 66 120 -6 8 -14 14 -18 14 -4 0 -42 -47 -85 -105z"/>
<path d="M2115 2210 c-7 -12 43 -147 58 -157 5 -3 15 1 23 9 12 12 10 24 -15
83 -28 67 -51 89 -66 65z"/>
<path d="M1790 2153 c-40 -14 -55 -87 -24 -117 22 -23 60 -20 78 6 22 31 20
60 -5 92 -21 27 -24 28 -49 19z m46 -42 c24 -48 -19 -100 -55 -67 -25 23 -27
53 -4 78 21 24 44 20 59 -11z"/>
<path d="M929 2053 c-28 -75 55 -142 97 -78 28 42 -6 105 -58 105 -22 0 -31
-6 -39 -27z m73 0 c42 -38 6 -109 -42 -83 -34 18 -23 100 14 100 5 0 18 -7 28
-17z"/>
<path d="M1196 1871 c-24 -26 -12 -44 24 -36 23 5 32 2 45 -19 20 -29 40 -34
49 -10 8 20 -54 84 -81 84 -11 0 -28 -9 -37 -19z"/>
<path d="M1520 1862 c-43 -21 -71 -65 -52 -84 10 -10 18 -6 43 21 25 28 35 32
60 27 37 -7 53 19 24 40 -24 18 -33 18 -75 -4z"/>
<path d="M1513 1740 c-49 -30 -76 -91 -80 -185 -3 -75 3 -81 20 -24 4 11 22
18 59 22 29 3 59 7 67 9 25 6 45 -52 46 -129 0 -82 -15 -106 -79 -128 -41 -14
-37 -17 -79 65 l-28 55 6 -42 c18 -138 106 -253 192 -253 46 0 105 41 133 90
23 41 25 56 25 165 0 178 -42 297 -124 352 -43 29 -113 31 -158 3z m120 -34
c33 -13 74 -61 59 -69 -15 -9 -116 -40 -168 -52 l-54 -12 7 26 c10 42 31 78
59 100 31 25 52 26 97 7z m97 -144 c44 -164 37 -281 -21 -347 -36 -40 -70 -50
-107 -31 -25 13 -82 75 -82 90 0 2 16 2 35 -1 42 -7 78 20 101 74 18 42 17
127 -1 178 -8 22 -15 41 -15 42 0 4 62 31 72 32 4 1 12 -16 18 -37z"/>
<path d="M1171 1703 c-168 -83 -133 -554 45 -613 69 -23 153 28 189 114 21 49
32 180 17 190 -7 4 -14 -7 -18 -29 -4 -22 -12 -35 -21 -35 -9 0 -31 -9 -49
-21 -22 -13 -41 -18 -55 -14 -30 10 -57 78 -65 168 l-7 77 59 0 c33 0 69 3 81
6 18 5 25 -1 42 -35 12 -23 23 -41 25 -41 11 0 -18 109 -40 151 -47 86 -128
119 -203 82z m141 -73 c21 -23 38 -46 38 -52 0 -8 -25 -9 -82 -5 -46 4 -95 7
-110 7 -36 0 -35 11 3 55 26 29 38 35 72 35 34 0 46 -6 79 -40z m-142 -128 c0
-92 36 -210 74 -241 29 -25 77 -17 108 18 16 18 31 31 34 29 2 -3 -3 -29 -12
-58 -33 -112 -123 -155 -184 -90 -50 54 -73 130 -78 263 l-4 117 31 0 c29 0
31 -2 31 -38z"/>
<path d="M1973 1394 c-48 -24 -100 -87 -113 -136 -22 -81 1 -151 63 -188 44
-27 57 -25 17 3 -54 36 -74 71 -74 128 0 89 55 160 151 195 31 11 34 13 13 13
-14 0 -40 -7 -57 -15z"/>
<path d="M795 1296 c-40 -17 -90 -75 -105 -121 -17 -51 -9 -144 15 -178 71
-97 268 -102 335 -7 85 119 -24 321 -172 320 -24 -1 -57 -7 -73 -14z m140 -15
c107 -48 157 -194 95 -281 -27 -38 -68 -60 -129 -67 -114 -13 -212 65 -210
169 1 57 18 101 54 139 55 59 119 73 190 40z"/>
<path d="M830 1226 c-18 -22 -5 -48 22 -44 17 2 23 10 23 28 0 29 -26 38 -45
16z"/>
<path d="M954 1125 c-7 -18 13 -45 33 -45 19 0 28 27 13 45 -16 19 -39 19 -46
0z"/>
<path d="M734 1105 c-7 -17 12 -45 31 -45 16 0 26 25 19 45 -8 19 -43 19 -50
0z"/>
<path d="M862 1008 c-18 -18 -15 -36 9 -43 25 -8 42 6 37 31 -4 23 -29 29 -46
12z"/>
<path d="M1936 1191 c-15 -24 27 -62 47 -42 15 15 3 46 -20 49 -11 2 -24 -1
-27 -7z"/>
<path d="M1630 1101 c-19 -10 -53 -28 -75 -40 -47 -25 -94 -26 -195 -5 -159
33 -240 -19 -240 -153 1 -99 67 -180 183 -225 87 -33 243 -33 337 0 136 47
218 142 227 266 10 116 -41 176 -147 176 -34 -1 -69 -8 -90 -19z m143 -32 c35
-16 51 -52 50 -110 -1 -56 -16 -99 -51 -146 -25 -34 -42 -42 -42 -20 0 21 -63
77 -99 87 -24 7 -43 5 -72 -7 -21 -8 -39 -19 -39 -23 0 -5 -24 -9 -54 -9 -70
0 -100 -20 -123 -82 l-19 -48 -52 30 c-92 52 -132 144 -97 224 l18 40 8 -35
c11 -49 42 -71 98 -69 25 1 57 -3 70 -10 14 -8 36 -10 55 -6 17 3 50 6 74 5
24 0 57 6 74 15 17 8 51 15 75 15 35 0 49 6 70 28 22 24 25 33 20 80 -6 55 -3
59 36 41z m-77 -34 c11 -58 -35 -92 -85 -65 -14 7 -25 4 -45 -15 -29 -27 -47
-31 -76 -15 -13 7 -27 5 -49 -6 -29 -15 -34 -14 -67 5 -27 16 -38 18 -53 9
-27 -17 -70 -2 -77 27 -3 13 -3 29 1 34 9 16 65 13 147 -5 87 -20 149 -9 218
36 60 40 77 39 86 -5z m-29 -230 c19 -19 33 -40 31 -47 -8 -27 -135 -59 -230
-59 -50 0 -92 2 -95 5 -8 7 6 42 28 70 15 19 30 26 54 26 31 0 34 -3 37 -32 4
-43 32 -45 36 -3 9 77 81 98 139 40z"/>
<path d="M1436 354 c-51 -16 -100 -43 -92 -51 3 -3 30 4 61 16 69 26 206 29
283 6 100 -30 155 -105 156 -212 1 -61 2 -63 28 -63 14 0 34 3 43 6 13 5 11
10 -12 24 -18 10 -29 27 -31 43 -3 45 -42 134 -70 162 -43 44 -63 53 -140 70
-90 19 -162 18 -226 -1z"/>
<path d="M2200 170 c-24 -24 -25 -38 -4 -68 36 -51 122 -5 93 50 -23 43 -57
50 -89 18z m64 -3 c38 -27 -2 -95 -41 -71 -25 16 -29 55 -7 71 10 7 21 13 24
13 3 0 14 -6 24 -13z"/>
<path d="M2216 143 c-8 -19 17 -48 33 -39 17 11 13 26 -4 20 -10 -4 -15 0 -15
11 0 11 5 15 15 11 8 -3 15 -1 15 4 0 17 -38 11 -44 -7z"/>
<path d="M2315 159 c-4 -5 1 -19 11 -30 16 -18 16 -19 -1 -19 -15 0 -16 -3 -7
-12 20 -20 40 7 24 32 -7 12 -8 20 -2 20 5 0 10 5 10 10 0 13 -27 13 -35 -1z"/>
<path d="M2610 160 c0 -5 -6 -10 -14 -10 -15 0 -29 -27 -21 -40 3 -5 30 -9 61
-9 52 0 56 2 50 22 -5 21 -4 21 9 4 7 -11 11 -25 8 -33 -3 -8 -1 -14 5 -14 5
0 13 12 16 26 5 19 11 24 26 19 11 -3 25 -3 32 1 8 5 0 11 -22 15 -23 5 -37 3
-42 -4 -6 -9 -8 -9 -8 1 0 7 -14 12 -35 12 -19 0 -35 -4 -35 -10 0 -5 -4 -10
-9 -10 -5 0 -7 9 -4 20 3 11 0 20 -6 20 -6 0 -11 -4 -11 -10z"/>
<path d="M2790 161 c0 -6 5 -13 10 -16 6 -3 10 -15 10 -26 0 -31 14 -22 26 16
10 33 3 50 -10 23 -5 -10 -7 -10 -12 0 -7 14 -24 16 -24 3z"/>
<path d="M2857 153 c-2 -10 -8 -27 -13 -37 -6 -16 -4 -18 11 -13 9 4 24 2 31
-4 17 -14 18 -3 3 40 -12 35 -24 40 -32 14z"/>
<path d="M2360 126 c0 -24 25 -43 35 -26 3 5 12 7 20 3 10 -3 15 2 15 16 0 28
17 27 23 -1 4 -20 4 -19 6 5 1 20 -4 27 -18 27 -11 0 -22 -8 -24 -17 -4 -17
-5 -17 -6 0 -1 24 -21 21 -21 -4 0 -12 -4 -17 -11 -14 -6 4 -8 13 -5 21 3 8 1
14 -4 14 -6 0 -10 -11 -10 -24z"/>
<path d="M2471 123 l0 -28 11 25 c11 25 11 25 15 3 3 -13 9 -23 14 -23 22 0 4
45 -18 48 -19 3 -23 -1 -22 -25z"/>
<path d="M2529 128 c4 -13 6 -29 4 -35 -3 -7 0 -13 5 -13 5 0 12 8 15 18 2 9
8 26 13 37 7 18 6 18 -9 6 -11 -9 -17 -10 -17 -2 0 6 -4 11 -10 11 -6 0 -6 -9
-1 -22z"/>
</g>
</svg>
